<svg width="1024" height="1024" viewBox="0 0 1024 1024" fill="none" xmlns="http://www.w3.org/2000/svg">
<style>
  .bg { fill: black; }
  .fg { fill: white; }
  @media (prefers-color-scheme: dark) {
    .bg { fill: white; }
    .fg { fill: black; }
  }
</style>
<rect class="bg" width="1024" height="1024" rx="153.88"/>
<path class="fg" d="M364.591 95.064H385.975V665.207L364.591 665.207V95.064Z"/>
<path class="fg" d="M663.383 369.464L663.383 390.735L87.1416 390.735L87.1416 368.42L663.383 369.464Z"/>
<path class="fg" d="M585.636 575.265L569.739 590.509L163.289 186.343L179.237 170.564L585.636 575.265Z"/>
<path class="fg" d="M179.611 589.337L163.663 573.558L571.127 170.406L587.075 186.185L179.611 589.337Z"/>
<path class="fg" d="M645.382 369.464L666.431 369.464V928.936H645.382V369.464Z"/>
<path class="fg" d="M937 650.255V672.182L364.591 672.181L364.591 650.255L937 650.255Z"/>
<path class="fg" d="M862.451 851.976L846.947 867.48L450.816 471.35L466.32 455.845L862.451 851.976Z"/>
<path class="fg" d="M466.684 867.324L451.18 851.82L847.31 455.69L862.814 471.194L466.684 867.324Z"/>
</svg>
