<svg width="850" height="834" viewBox="0 0 850 834" fill="none" xmlns="http://www.w3.org/2000/svg">
<path d="M277.449 0H298.833V570.143L277.449 570.143V0Z" fill="black"/>
<path d="M576.241 274.4L576.241 295.671L0 295.671L9.85843e-07 273.356L576.241 274.4Z" fill="black"/>
<path d="M498.494 480.201L482.598 495.445L76.1476 91.2793L92.0953 75.5004L498.494 480.201Z" fill="black"/>
<path d="M92.4692 494.273L76.5215 478.494L483.985 75.3418L499.933 91.1207L92.4692 494.273Z" fill="black"/>
<path d="M558.24 274.4L579.29 274.4V833.872H558.24V274.4Z" fill="black"/>
<path d="M849.858 555.191V577.118L277.449 577.118L277.449 555.191L849.858 555.191Z" fill="black"/>
<path d="M775.309 756.912L759.805 772.416L363.675 376.286L379.179 360.781L775.309 756.912Z" fill="black"/>
<path d="M379.542 772.26L364.038 756.756L760.169 360.626L775.673 376.13L379.542 772.26Z" fill="black"/>
</svg>
