<svg width="838" height="442" viewBox="0 0 838 442" fill="none" xmlns="http://www.w3.org/2000/svg">
<path d="M126.463 359.414C107.126 359.414 90.2386 356.965 75.8004 352.066C61.3622 346.91 49.2445 339.949 39.4471 331.183C29.9076 322.159 22.5596 311.588 17.4031 299.47C12.2467 287.352 9.28168 274.332 8.50821 260.41H42.541C47.1819 307.849 75.6715 331.569 128.01 331.569C137.549 331.569 146.315 330.538 154.308 328.475C162.558 326.155 169.52 322.932 175.192 318.807C181.122 314.424 185.634 309.01 188.727 302.564C192.079 295.861 193.755 288.255 193.755 279.747C193.755 270.207 191.692 262.343 187.567 256.156C183.7 249.968 178.157 244.811 170.938 240.686C163.719 236.561 154.952 233.209 144.64 230.631C134.584 227.795 123.369 224.959 110.993 222.123C98.8757 219.545 87.2736 216.58 76.1871 213.228C65.3585 209.618 55.819 204.977 47.5686 199.305C39.3182 193.633 32.7437 186.543 27.845 178.035C22.9464 169.269 20.497 158.311 20.497 145.162C20.497 133.818 22.6885 123.634 27.0716 114.61C31.7124 105.586 38.158 97.9803 46.4084 91.7925C54.6588 85.3469 64.585 80.4483 76.1871 77.0966C87.7892 73.7448 100.552 72.069 114.474 72.069C131.748 72.069 146.573 74.2605 158.949 78.6435C171.582 82.7687 182.024 88.5697 190.274 96.0466C198.525 103.524 204.97 112.676 209.611 123.505C214.252 134.076 217.475 145.678 219.28 158.311H186.407C183.829 138.459 176.352 123.634 163.976 113.837C151.859 104.039 135.616 99.1405 115.248 99.1405C96.4263 99.1405 81.3436 103.008 69.9993 110.743C58.6551 118.22 52.9829 129.177 52.9829 143.615C52.9829 151.35 54.7877 157.925 58.3972 163.339C62.0068 168.495 67.0344 173.007 73.48 176.875C79.9256 180.484 87.5314 183.449 96.2974 185.77C105.321 188.09 114.99 190.281 125.303 192.344C138.71 195.18 151.601 198.403 163.976 202.013C176.352 205.364 187.309 210.134 196.849 216.322C206.388 222.51 213.994 230.631 219.666 240.686C225.339 250.483 228.175 263.117 228.175 278.586C228.175 291.478 225.596 302.951 220.44 313.006C215.541 323.061 208.58 331.569 199.556 338.531C190.532 345.234 179.833 350.39 167.457 354C155.081 357.61 141.417 359.414 126.463 359.414ZM378.993 354V326.542H378.219C371 336.339 362.75 344.203 353.468 350.133C344.444 355.805 332.584 358.641 317.888 358.641C297.263 358.641 280.891 352.84 268.773 341.238C256.655 329.636 250.596 313.393 250.596 292.509V154.057H281.922V291.735C281.922 304.884 285.789 315.069 293.524 322.288C301.517 329.249 312.603 332.729 326.783 332.729C334.776 332.729 341.995 331.311 348.441 328.475C354.886 325.639 360.301 321.772 364.684 316.873C369.324 311.717 372.805 305.787 375.125 299.083C377.704 292.38 378.993 285.032 378.993 277.039V154.057H410.319V354H378.993ZM428.314 154.057H457.319V91.0191H488.645V154.057H527.318V179.582H488.645V309.525C488.645 316.487 490.321 321.385 493.672 324.221C497.282 326.8 502.309 328.089 508.755 328.089C511.849 328.089 514.943 327.831 518.037 327.315C521.131 326.542 523.58 325.897 525.385 325.381H526.545V352.453C522.935 353.227 518.939 353.871 514.556 354.387C510.431 354.902 506.048 355.16 501.407 355.16C488.516 355.16 477.945 352.324 469.695 346.652C461.444 340.722 457.319 330.667 457.319 316.487V179.582H428.314V154.057ZM579.389 187.317H580.162C586.092 177.519 594.085 169.14 604.14 162.179C614.453 155.217 626.313 151.737 639.72 151.737C642.556 151.737 644.876 151.995 646.681 152.51C648.486 152.768 650.42 153.284 652.482 154.057V184.223H651.322C649.002 183.449 646.81 182.933 644.747 182.676C642.943 182.418 640.493 182.289 637.399 182.289C629.665 182.289 622.317 183.707 615.355 186.543C608.394 189.379 602.206 193.375 596.792 198.532C591.378 203.688 587.124 210.134 584.03 217.869C580.936 225.346 579.389 233.725 579.389 243.007V354H548.063V154.057H579.389V187.317ZM818.486 355.934C798.633 355.934 787.16 346.007 784.066 326.155H783.679C780.586 330.022 776.976 333.89 772.851 337.757C768.726 341.367 763.956 344.718 758.542 347.812C753.127 350.906 746.94 353.355 739.978 355.16C733.275 356.965 725.669 357.867 717.161 357.867C707.621 357.867 698.726 356.707 690.476 354.387C682.226 352.324 675.006 348.972 668.819 344.332C662.889 339.691 658.119 333.89 654.509 326.928C651.158 319.967 649.482 311.717 649.482 302.177C649.482 290.317 651.673 280.649 656.056 273.172C660.439 265.695 666.498 259.636 674.233 254.995C681.968 250.355 691.121 246.874 701.691 244.554C712.52 241.975 724.122 239.655 736.498 237.592C743.459 236.561 749.904 235.53 755.834 234.498C761.764 233.209 766.792 231.662 770.917 229.858C775.3 227.795 778.652 225.217 780.972 222.123C783.293 218.771 784.453 214.388 784.453 208.974C784.453 197.629 780.586 188.992 772.851 183.062C765.116 176.875 754.03 173.781 739.592 173.781C723.349 173.781 711.102 177.39 702.852 184.609C694.601 191.571 690.218 202.657 689.702 217.869H659.537C659.795 208.329 661.6 199.434 664.951 191.184C668.303 182.676 673.202 175.457 679.647 169.527C686.351 163.597 694.601 158.956 704.398 155.604C714.454 151.995 726.056 150.19 739.205 150.19C749.776 150.19 759.573 151.35 768.597 153.67C777.621 155.733 785.355 159.214 791.801 164.112C798.504 169.011 803.661 175.585 807.27 183.836C811.138 191.828 813.071 201.755 813.071 213.615V308.752C813.071 317.002 814.361 323.19 816.939 327.315C819.775 331.183 825.576 332.085 834.342 330.022H835.502V352.84C833.44 353.613 831.119 354.258 828.541 354.773C825.963 355.547 822.611 355.934 818.486 355.934ZM724.122 333.89C734.435 333.89 743.459 332.214 751.194 328.862C758.928 325.253 765.245 320.87 770.144 315.713C775.042 310.557 778.652 304.884 780.972 298.697C783.551 292.251 784.84 286.063 784.84 280.133V246.1C779.683 249.452 772.851 252.417 764.343 254.995C756.092 257.316 747.713 259.25 739.205 260.796C731.47 262.343 724.122 263.89 717.161 265.437C710.2 266.984 704.141 269.305 698.984 272.399C694.086 275.235 690.089 278.973 686.995 283.614C684.159 288.255 682.741 294.185 682.741 301.404C682.741 308.107 683.901 313.65 686.222 318.033C688.8 322.159 692.023 325.381 695.89 327.702C699.758 330.022 704.141 331.698 709.039 332.729C713.938 333.503 718.966 333.89 724.122 333.89Z" fill="black"/>
</svg>
