<svg width="838" height="442" viewBox="0 0 838 442" fill="none" xmlns="http://www.w3.org/2000/svg">
<path d="M126.463 359.414C107.126 359.414 90.1096 357.094 75.8004 352.066C61.1044 347.039 49.1156 340.077 39.4471 331.183C29.7787 322.288 22.4307 311.846 17.4031 299.47C11.9888 287.481 9.28168 274.332 8.50821 260.41H42.541C47.1819 307.978 75.4136 331.569 128.01 331.569C137.292 331.569 146.186 330.796 154.308 328.475C162.429 326.155 169.391 323.061 175.192 318.807C180.993 314.553 185.634 309.139 188.727 302.564C191.821 295.99 193.755 288.255 193.755 279.747C193.755 270.465 191.435 262.343 187.567 256.156C183.7 249.968 177.899 244.94 170.938 240.686C163.59 236.819 154.695 233.338 144.64 230.631C134.584 227.924 123.369 225.217 110.993 222.123C98.6179 219.802 87.0157 216.708 76.1871 213.228C65.3585 209.747 55.6901 205.106 47.5686 199.305C39.0604 193.891 32.4859 186.543 27.845 178.035C22.8175 169.527 20.497 158.311 20.497 145.162C20.497 133.947 22.4307 123.892 27.0716 114.61C31.7124 105.715 37.9002 97.9803 46.4084 91.7925C54.5299 85.6048 64.585 80.5772 76.1871 77.0966C87.7892 74.0027 100.552 72.069 114.474 72.069C131.49 72.069 146.573 74.3894 158.949 78.6435C171.324 82.8976 181.766 88.6987 190.274 96.0466C198.396 103.781 204.97 112.676 209.611 123.505C214.252 134.334 217.346 145.936 219.28 158.311H186.407C183.7 138.588 176.352 123.892 163.976 113.837C151.601 104.168 135.358 99.1405 115.248 99.1405C96.2974 99.1405 81.2147 103.008 69.9993 110.743C58.3972 118.477 52.9829 129.306 52.9829 143.615C52.9829 151.35 54.5299 157.925 58.3972 163.339C61.8779 168.753 66.9054 173.007 73.48 176.875C79.6678 180.742 87.4025 183.449 96.2974 185.77C105.192 188.09 114.861 190.41 125.303 192.344C138.452 195.438 151.601 198.532 163.976 202.013C176.352 205.493 187.181 210.134 196.849 216.322C206.131 222.51 213.865 230.631 219.666 240.686C225.081 250.741 228.175 263.117 228.175 278.586C228.175 291.735 225.467 302.951 220.44 313.006C215.412 323.061 208.451 331.569 199.556 338.531C190.274 345.492 179.833 350.519 167.457 354C155.081 357.867 141.159 359.414 126.463 359.414ZM378.993 354V326.542H378.219C370.871 336.597 362.75 344.332 353.468 350.133C344.187 355.934 332.584 358.641 317.888 358.641C297.005 358.641 280.762 352.84 268.773 341.238C256.397 329.636 250.596 313.393 250.596 292.509V154.057H281.922V291.735C281.922 304.884 285.789 315.326 293.524 322.288C301.259 329.249 312.474 332.729 326.783 332.729C334.518 332.729 341.866 331.569 348.441 328.475C354.628 325.768 360.043 321.901 364.684 316.873C369.324 311.846 372.805 306.045 375.125 299.083C377.446 292.509 378.993 285.161 378.993 277.039V154.057H410.319V354H378.993ZM428.314 154.057H457.319V91.0191H488.645V154.057H527.318V179.582H488.645V309.525C488.645 316.487 490.192 321.514 493.672 324.221C497.153 326.928 502.181 328.089 508.755 328.089C511.849 328.089 514.943 328.089 518.037 327.315C521.131 326.542 523.451 326.155 525.385 325.381H526.545V352.453C522.678 353.227 518.81 354 514.556 354.387C510.302 355.16 506.048 355.16 501.407 355.16C488.258 355.16 477.816 352.453 469.695 346.652C461.186 340.851 457.319 330.796 457.319 316.487V179.582H428.314V154.057ZM579.389 187.317H580.162C585.963 177.648 594.085 169.14 604.14 162.179C614.195 155.217 626.184 151.737 639.72 151.737C642.427 151.737 644.747 152.123 646.681 152.51C648.228 152.897 650.162 153.284 652.482 154.057V184.223H651.322C649.002 183.449 646.681 183.062 644.747 182.676C642.814 182.676 640.493 182.289 637.399 182.289C629.665 182.289 622.317 183.836 615.355 186.543C608.394 189.637 602.206 193.504 596.792 198.532C591.378 203.946 587.124 210.134 584.03 217.869C580.936 225.603 579.389 233.725 579.389 243.007V354H548.063V154.057H579.389V187.317ZM818.486 355.934C798.375 355.934 787.16 346.265 784.066 326.155H783.679C780.586 330.022 776.718 333.89 772.851 337.757C768.597 341.624 763.956 344.718 758.542 347.812C753.127 350.906 746.94 353.613 739.978 355.16C733.017 357.094 725.669 357.867 717.161 357.867C707.492 357.867 698.597 357.094 690.476 354.773C681.968 352.453 675.006 348.972 668.819 344.332C662.631 339.691 657.99 333.89 654.509 326.928C651.029 319.967 649.482 311.846 649.482 302.177C649.482 290.575 651.416 280.907 656.056 273.172C660.311 265.824 666.498 259.636 674.233 254.995C681.968 250.355 690.863 246.874 701.691 244.554C712.52 242.233 724.122 239.913 736.498 237.592C743.459 236.819 749.647 235.659 755.834 234.498C761.636 233.338 766.663 231.791 770.917 229.858C775.171 227.924 778.652 225.217 780.972 222.123C783.293 219.029 784.453 214.388 784.453 208.974C784.453 197.758 780.586 189.25 772.851 183.062C765.116 176.875 753.901 173.781 739.592 173.781C723.349 173.781 710.973 177.648 702.852 184.609C694.343 191.571 690.089 202.786 689.702 217.869H659.537C659.537 208.587 661.471 199.692 664.951 191.184C668.045 182.676 673.073 175.714 679.647 169.527C686.222 163.726 694.343 159.085 704.398 155.604C714.454 152.123 726.056 150.19 739.205 150.19C749.647 150.19 759.315 151.35 768.597 153.67C777.492 155.991 785.226 159.471 791.801 164.112C798.375 169.14 803.403 175.714 807.27 183.836C811.138 191.957 813.071 202.013 813.071 213.615V308.752C813.071 317.26 814.232 323.448 816.939 327.315C819.646 331.183 825.447 332.343 834.342 330.022H835.502V352.84C833.182 353.613 830.861 354.387 828.541 355.16C825.834 355.934 822.353 355.934 818.486 355.934ZM724.122 333.89C734.177 333.89 743.459 332.343 751.194 328.862C758.928 325.381 765.116 321.127 770.144 315.713C774.785 310.685 778.652 304.884 780.972 298.697C783.293 292.509 784.84 286.321 784.84 280.133V246.1C779.425 249.581 772.851 252.675 764.343 254.995C755.834 257.316 747.713 259.25 739.205 260.796C731.47 262.343 724.122 263.89 717.161 265.437C710.2 266.984 704.012 269.305 698.984 272.399C693.957 275.492 690.089 278.973 686.995 283.614C683.901 288.255 682.741 294.443 682.741 301.404C682.741 308.365 683.901 313.779 686.222 318.033C688.542 322.288 692.023 325.381 695.89 327.702C699.758 330.022 704.012 331.956 709.039 332.729C713.68 333.503 718.708 333.89 724.122 333.89Z" fill="white"/>
</svg>
